<svg id="Calque_1" data-name="Calque 1" xmlns="http://www.w3.org/2000/svg" viewBox="0 0 280 283"><defs><style>.cls-1{fill:#b6daa3;}.cls-2{fill:none;stroke:#405426;stroke-linecap:round;stroke-linejoin:round;stroke-width:2px;}</style></defs><title>pizza</title><circle class="cls-1" cx="137.4" cy="139.14" r="118.86"/><path class="cls-2" d="M129.34,203.26s15.84-76.67,61.47-95.68"/><path class="cls-2" d="M135.36,182a107.22,107.22,0,0,0-10-6.17c-8.13-4.45-20.06-9.76-31.48-10.3"/><path class="cls-2" d="M126.3,176.39s-20.88-65-34.35-29.84c0,0-48.31-11.89-11.24,31.36,0,0-22.48,29,9.66,20.28,7.8-2.11,20.75-15.21,29.31-13.62"/><path class="cls-2" d="M158.51,109.26s-2-46.29-19.78-20.94c0,0-35.3-19.19-15.23,22.76,0,0-23.5,18.58,3.38,18.12,6.53-.12,19.33-8,25.69-5"/><path class="cls-2" d="M138.87,107.58s20.29,8.71,47.77,44.67"/><path class="cls-2" d="M170.37,122.31s41.32,18.22,26.46-8.91c0,0,32.84-23.13-13.66-23.74,0,0-6.24-29.3-17.74-5-2.79,5.9-1.43,20.85-6.92,25.23"/><path class="cls-2" d="M161.79,148.05s-4.94,46.07,16.41,23.68c0,0,32,24.29,18.47-20.21,0,0,26-14.83-.62-18.42"/></svg>